<?xml version="1.0" encoding="utf-8"?>
<!-- Generator: Adobe Illustrator 28.0.0, SVG Export Plug-In . SVG Version: 6.00 Build 0)  -->
<svg version="1.1" id="Layer_1" xmlns="http://www.w3.org/2000/svg" xmlns:xlink="http://www.w3.org/1999/xlink" x="0px" y="0px"
	 viewBox="0 0 648 784.1" style="enable-background:new 0 0 648 784.1;" xml:space="preserve">
<style type="text/css">
	.st0{fill:#0550C4;}
</style>
<g>
	<g>
		<path class="st0" d="M404.6,472.5H432v95.6h-27.4V472.5z"/>
		<path class="st0" d="M368.9,533l26.5,35.2H363l-24.8-33l0,0v33h-27.4v-95.6h43.1c23.4,0,38.3,13.2,38.3,32.7
			C392.2,528.8,372.7,532.5,368.9,533z M349.8,494.2h-11.6v20.5h11.6c7.7,0,13.1-2.8,13.1-10.3C362.8,497,357.5,494.2,349.8,494.2z"
			/>
		<path class="st0" d="M270,502.6c0,0-0.3-11-14.2-11c-7.8,0-12.5,3.2-12.5,8.1c0,4.8,2.7,7.5,22.4,10.7s34.8,10.3,34.8,29
			c0,17.8-14.2,31.4-44.9,30.8c-42.9-0.9-43.9-31.9-43.9-31.9h30.2c0,2.8,3.8,10.7,14.2,10.9c10.6,0.2,14-3,14-7.5
			c0-7.6-9.3-8.7-22-10.8c-18.9-3.2-35-11-35-29.4c0-4.8,0.6-31,42.6-31c44,0,42.7,32,42.7,32H270z"/>
	</g>
	<g>
		<polygon class="st0" points="332.5,216 394.1,297.8 216,432 432,432 432,216 		"/>
		<path class="st0" d="M255.4,135.3L95.5,255.8L216,415.7l159.9-120.5L255.4,135.3z M216,216v176.5L115.1,258.6l137.6-103.7l46,61.1
			H216z"/>
	</g>
</g>
</svg>
