<?xml version="1.0" encoding="utf-8"?>
<!-- Generator: Adobe Illustrator 28.0.0, SVG Export Plug-In . SVG Version: 6.00 Build 0)  -->
<svg version="1.1" id="Layer_1" xmlns="http://www.w3.org/2000/svg" xmlns:xlink="http://www.w3.org/1999/xlink" x="0px" y="0px"
	 viewBox="0 0 737.6 432" style="enable-background:new 0 0 737.6 432;" xml:space="preserve">
<g>
	<g>
		<path d="M560.1,157.5h33.5v117h-33.5V157.5z"/>
		<path d="M516.4,231.5l32.4,43h-39.6l-30.4-40.3l0,0v40.3h-33.5v-117H498c28.6,0,46.8,16.2,46.8,40
			C544.9,226.4,521.1,230.9,516.4,231.5z M493,184h-14.2v25.1H493c9.4,0,16-3.5,16-12.6S502.4,184,493,184z"/>
		<path d="M395.3,194.3c0,0-0.4-13.4-17.4-13.4c-9.5,0-15.3,3.9-15.3,9.9c0,5.9,3.3,9.2,27.4,13.1c24.1,4,42.6,12.6,42.6,35.5
			c0,21.8-17.3,38.5-54.9,37.7c-52.4-1-53.7-39-53.7-39h37c0,3.5,4.6,13.1,17.4,13.4c12.9,0.3,17.2-3.6,17.2-9.1
			c0-9.2-11.3-10.6-26.9-13.2c-23.1-3.9-42.8-13.5-42.8-36c0-5.9,0.7-38,52.1-38c53.8,0,52.3,39.1,52.3,39.1H395.3z"/>
	</g>
	<g>
		<polygon points="221.6,144 262.7,198.5 144,288 288,288 288,144 		"/>
		<path d="M170.3,90.2L63.7,170.5L144,277.1l106.6-80.3L170.3,90.2z M144,144v117.6l-67.3-89.3l91.7-69.1l30.7,40.7H144z"/>
	</g>
</g>
</svg>
